<svg xmlns="http://www.w3.org/2000/svg" viewBox="78 55 310 120" fill="none">
<path d="M147.79 120.889C147.79 120.497 147.81 120.054 147.81 119.585V70.6701C147.81 70.1877 147.79 69.7508 147.79 69.3661C147.895 67.6904 147.771 67.0449 150.353 65.8126L149.981 64H136.256L135.891 65.8126C138.558 67.058 138.414 67.7035 138.525 69.3791C138.525 69.7704 138.512 70.2007 138.512 70.6701V119.585C138.512 120.054 138.525 120.484 138.525 120.869C138.421 122.545 138.551 123.197 135.891 124.442L136.256 126.255H149.981L150.353 124.442C147.771 123.21 147.901 122.558 147.79 120.889Z" fill="#3E1E00"/>
<path d="M106.707 120.869C106.707 120.484 106.726 120.054 106.726 119.585V70.6701C106.726 70.2007 106.713 69.7704 106.713 69.3857C106.824 67.7035 106.68 67.058 109.347 65.8126L108.982 64H95.1724L94.8073 65.8126C97.4805 67.058 97.3306 67.71 97.4414 69.3922C97.4414 69.7769 97.4284 70.2072 97.4284 70.6701V119.585C97.4284 120.047 97.4479 120.471 97.4479 120.856C97.3371 122.538 97.4805 123.19 94.8138 124.442L95.1789 126.255H108.989L109.354 124.442C106.687 123.197 106.83 122.551 106.72 120.869" fill="#3E1E00"/>
<path d="M176.968 105.494L183.586 89.7221L189.806 105.494H176.968ZM204.333 120.934L185.034 72.5089L184.147 74.6475L168.785 111.617C168.674 111.962 165.075 120.51 165.069 120.523C163.96 123.021 164.045 123.008 162.122 124.572L161.737 126.352H171.159L171.093 124.494C169.887 123.797 169.77 123.49 169.77 123.19C169.77 122.988 169.848 122.636 170.083 122.134L174.634 111.102H191.951C192.845 113.351 195.961 121.228 196.111 121.684C196.326 122.271 196.398 122.656 196.398 122.89C196.411 123.327 196.183 123.601 194.853 124.546L194.41 126.15V126.352H208.043L208.128 124.99L206.994 124.188C205.024 123.105 205.253 122.982 204.32 120.941" fill="#3E1E00"/>
<path d="M253.326 75.9058L253.026 74.0672H244.817L244.524 75.9058C246.532 76.6817 246.369 77.1316 246.486 78.5204C246.486 78.8986 246.467 79.3159 246.467 79.7788V108.402C246.467 109.159 246.48 109.889 246.48 110.6C246.414 114.688 246.212 117.694 241.127 120.628C239.294 121.638 236.36 122.271 233.531 122.264C231.033 122.271 228.608 121.762 227.076 120.791C222.525 117.752 221.912 114.029 221.879 108.618C221.879 107.933 221.886 107.242 221.905 106.525V79.7788C221.905 79.3811 221.892 79.0225 221.892 78.703C222.003 77.3142 221.814 76.9099 223.992 75.8732L223.633 74.0606H212.131L211.766 75.8732C213.944 76.9099 213.755 77.3142 213.866 78.703C213.866 79.0225 213.853 79.3811 213.853 79.7788V106.505C213.833 107.17 213.827 107.868 213.827 108.559C213.787 114.44 214.7 120.517 221.26 124.429C224.031 126.092 228.236 126.802 232.481 126.815C236.673 126.809 240.872 126.098 243.728 124.592C250.685 120.856 251.383 115.118 251.331 110.437C251.331 109.511 251.311 108.611 251.311 107.763V79.7788C251.311 79.4463 251.305 79.1333 251.305 78.8464C251.415 77.2686 251.239 76.7143 253.332 75.9058" fill="#3E1E00"/>
<path d="M312.764 104.445H297.95L300.082 106.127C301.504 107.092 301.895 111.193 301.83 113.247C301.83 113.625 301.83 113.932 301.83 114.16V118.209C298.022 121.254 291.71 122.297 288.744 122.284C288.561 122.284 288.378 122.277 288.196 122.271C282.321 121.912 276.949 119.193 273.284 112.517C271.472 109.354 270.35 104.23 270.363 99.1959C270.35 94.4818 271.335 89.8395 273.375 86.9184C278.448 79.655 282.465 78.1162 288.809 78.0575C296.392 78.1227 300.845 80.7569 305.879 89.4417L307.632 88.8745L306.446 77.5881L305.852 77.4055L304.027 76.8513C298.563 74.83 292.929 73.3565 287.413 73.3565C281.8 73.3499 276.29 74.9017 271.309 78.9051C263.126 85.308 261.085 93.6864 261.105 101.308C261.105 101.863 261.111 102.417 261.137 102.971C261.633 112.002 266.673 119.956 276.492 124.416C280.3 126.163 284.525 126.9 288.744 126.9C296.835 126.894 304.914 124.214 310.182 120.543L310.873 120.061L310.475 119.324C309.589 117.628 309.634 117.622 309.536 116.155V113.462C309.484 111.473 309.778 107.307 311.153 106.062L312.77 104.451L312.764 104.445Z" fill="#3E1E00"/>
<path d="M352.426 116.905C349.753 120.53 347.732 120.673 344.635 120.732C343.989 120.732 343.311 120.726 342.607 120.726C342.594 120.726 339.907 120.745 337.091 120.745C335.089 120.745 332.957 120.732 331.783 120.706C331.835 114.584 331.835 79.7919 331.835 79.7919C331.835 79.4007 331.816 79.042 331.816 78.7291C331.927 77.3403 331.731 76.936 333.915 75.8928L333.55 74.0802H322.042L321.677 75.8928C323.855 76.9295 323.659 77.3338 323.777 78.7226C323.777 79.042 323.763 79.4007 323.763 79.7984V120.563C323.763 120.954 323.777 121.306 323.777 121.632C323.666 123.014 323.659 123.471 321.703 124.625L321.729 126.17L321.866 126.261C322.179 126.3 322.238 126.281 322.694 126.294C323.913 126.307 326.652 126.307 329.997 126.307C338.916 126.307 352.139 126.274 352.139 126.274H352.961L354.128 117.602L352.426 116.924V116.905Z" fill="#3E1E00"/>
<path d="M376.023 124.651C374.151 123.379 374.503 122.995 374.393 121.612C374.393 121.293 374.406 120.934 374.406 120.543V79.7788C374.406 79.3811 374.386 79.0225 374.386 78.703C374.497 77.3142 374.308 76.9099 376.486 75.8732L376.12 74.0606H364.691L364.319 75.8732C366.425 76.8969 366.249 77.3012 366.353 78.6834C366.353 79.0094 366.34 79.3746 366.34 79.7788V120.543C366.34 120.934 366.353 121.299 366.353 121.625C366.249 123.001 365.995 123.444 364.325 124.651L364.436 126.346L364.469 126.229C364.671 126.261 364.723 126.261 364.801 126.261C364.841 126.261 364.886 126.261 364.951 126.261C365.453 126.274 366.503 126.281 367.775 126.281L367.592 126.32C370.983 126.32 376.662 126.548 376.662 126.548L376.681 125.185L376.01 124.651H376.023Z" fill="#3E1E00"/>
<path d="M150.099 163.641V142.803H162.63V145.483H153.013V151.677H161.678V154.298H153.013V160.968H162.689V163.648H150.099V163.641Z" fill="#3E1E00"/>
<path d="M174.393 163.641V142.803H177.307V163.641H174.393Z" fill="#3E1E00"/>
<path d="M189.311 163.641V142.803H201.843V145.483H192.225V151.677H200.891V154.298H192.225V160.968H201.901V163.648H189.311V163.641Z" fill="#3E1E00"/>
<path d="M213.605 163.641V142.803H216.611L228.399 158.758V142.803H231.346V163.641H228.399L216.52 147.537V163.641H213.605Z" fill="#3E1E00"/>
<path d="M243.344 163.641V142.803H249.772C251.755 142.803 253.522 143.246 255.054 144.126C256.593 145.007 257.799 146.233 258.672 147.804C259.546 149.375 259.983 151.181 259.983 153.222C259.983 155.263 259.546 157.043 258.672 158.608C257.799 160.179 256.593 161.405 255.054 162.298C253.515 163.192 251.755 163.635 249.772 163.635H243.344V163.641ZM246.258 160.903H249.772C250.783 160.903 251.728 160.707 252.602 160.323C253.476 159.938 254.245 159.39 254.91 158.686C255.575 157.982 256.09 157.167 256.456 156.228C256.821 155.296 257.01 154.291 257.01 153.222C257.01 152.153 256.827 151.149 256.456 150.216C256.09 149.284 255.575 148.462 254.91 147.758C254.245 147.054 253.476 146.506 252.602 146.122C251.728 145.737 250.783 145.541 249.772 145.541H246.258V160.903Z" fill="#3E1E00"/>
<path d="M279.635 164C277.607 164 275.814 163.544 274.243 162.631C272.671 161.718 271.446 160.447 270.565 158.816C269.679 157.193 269.242 155.322 269.242 153.222C269.242 151.123 269.685 149.258 270.565 147.641C271.446 146.024 272.665 144.752 274.21 143.833C275.755 142.907 277.542 142.451 279.57 142.451C281.597 142.451 283.384 142.914 284.929 143.833C286.475 144.752 287.687 146.024 288.561 147.641C289.435 149.258 289.872 151.123 289.872 153.222C289.872 155.322 289.435 157.193 288.561 158.816C287.687 160.447 286.481 161.718 284.942 162.631C283.404 163.544 281.63 164 279.628 164H279.635ZM279.635 161.32C281.063 161.32 282.321 160.975 283.417 160.277C284.505 159.579 285.36 158.627 285.979 157.421C286.592 156.208 286.898 154.813 286.898 153.222C286.898 151.631 286.585 150.262 285.959 149.036C285.334 147.817 284.473 146.858 283.371 146.161C282.269 145.47 281.004 145.118 279.576 145.118C278.148 145.118 276.877 145.463 275.768 146.161C274.653 146.858 273.786 147.817 273.16 149.036C272.534 150.255 272.221 151.651 272.221 153.222C272.221 154.794 272.541 156.208 273.173 157.421C273.806 158.634 274.686 159.586 275.808 160.277C276.929 160.975 278.207 161.32 279.635 161.32Z" fill="#3E1E00"/>
<path d="M300.506 163.641V142.803H303.603L310.508 153.014L317.387 142.803H320.484V163.641H317.569V147.504L310.482 157.956L303.427 147.537V163.641H300.513H300.506Z" fill="#3E1E00"/>
<path d="M118.984 99.698C150.868 105.631 160.824 92.1281 160.824 92.1281C143.761 95.5316 143.976 96.627 119.095 91.2087C94.227 85.7904 80 98.7786 80 98.7786C80 98.7786 87.1005 93.7581 118.984 99.6915" fill="#E96706"/>
</svg>